P3
10 10
255
255 0 0   255 0 0   255 0 0   255 0 0   255 0 0   255 0 0   255 0 0   255 0 0   255 0 0   255 0 0
255 127 0   255 127 0   255 127 0   255 127 0   255 127 0   255 127 0   255 127 0   255 127 0   255 127 0   255 127 0
0 255 0   0 255 0   0 255 0   0 255 0   0 255 0   0 255 0   0 255 0   0 255 0   0 255 0   0 255 0
0 0 255   0 0 255   0 0 255   0 0 255   0 0 255   0 0 255   0 0 255   0 0 255   0 0 255   0 0 255
127 127 127   127 127 127   127 127 127   127 127 127   127 127 127   127 127 127   127 127 127   127 127 127   127 127 127   127 127 127
255 255 0   255 255 0   255 255 0   255 255 0   255 255 0   255 255 0   255 255 0   255 255 0   255 255 0   255 255 0
255 165 0   255 165 0   255 165 0   255 165 0   255 165 0   255 165 0   255 165 0   255 165 0   255 165 0   255 165 0
75 0 130   75 0 130   75 0 130   75 0 130   75 0 130   75 0 130   75 0 130   75 0 130   75 0 130   75 0 130
0 255 255   0 255 255   0 255 255   0 255 255   0 255 255   0 255 255   0 255 255   0 255 255   0 255 255   0 255 255
255 20 147   255 20 147   255 20 147   255 20 147   255 20 147   255 20 147   255 20 147   255 20 147   255 20 147   255 20 147
